<mxfile host="app.diagrams.net" modified="2024-01-09T00:55:06.026Z" agent="Mozilla/5.0 (Windows NT 10.0; Win64; x64) AppleWebKit/537.36 (KHTML, like Gecko) Chrome/120.0.0.0 Safari/537.36" version="22.1.17" etag="r9fUFeuVgNM3dc_o4vAx" type="github">
  <diagram name="Trang-1" id="jYfztloX2nldXa4NFoVx">
    <mxGraphModel>
      <root>
        <mxCell id="0" />
        <mxCell id="1" parent="0" />
      </root>
    </mxGraphModel>
  </diagram>
</mxfile>
